<?xml version="1.0" encoding="UTF-8" standalone="no"?>
<!DOCTYPE svg PUBLIC "-//W3C//DTD SVG 1.1//EN"
 "http://www.w3.org/Graphics/SVG/1.1/DTD/svg11.dtd">
<!-- Generated by graphviz version 2.38.0 (20140413.2041)
 -->
<!-- Title: %3 Pages: 1 -->
<svg width="1021pt" height="1276pt"
 viewBox="0.00 0.00 1021.12 1275.92" xmlns="http://www.w3.org/2000/svg" xmlns:xlink="http://www.w3.org/1999/xlink">
<g id="graph0" class="graph" transform="scale(1 1) rotate(0) translate(4 1271.92)">
<title>%3</title>
<polygon fill="white" stroke="none" points="-4,4 -4,-1271.92 1017.12,-1271.92 1017.12,4 -4,4"/>
<!-- __sfvwrite -->
<g id="node1" class="node"><title>__sfvwrite</title>
<polygon fill="#0d387f" stroke="#0d387f" points="91.3725,-1161.67 0.208519,-1161.67 0.208519,-1095.68 91.3725,-1095.68 91.3725,-1161.67"/>
<text text-anchor="middle" x="45.7905" y="-1149.42" font-family="Arial" font-size="10.00" fill="#ffffff">libsystem_c.dylib</text>
<text text-anchor="middle" x="45.7905" y="-1137.93" font-family="Arial" font-size="10.00" fill="#ffffff">__sfvwrite</text>
<text text-anchor="middle" x="45.7905" y="-1126.43" font-family="Arial" font-size="10.00" fill="#ffffff">9.42%</text>
<text text-anchor="middle" x="45.7905" y="-1114.93" font-family="Arial" font-size="10.00" fill="#ffffff">(9.40%)</text>
<text text-anchor="middle" x="45.7905" y="-1103.43" font-family="Arial" font-size="10.00" fill="#ffffff">385633571×</text>
</g>
<!-- __sprintf_chk -->
<g id="node2" class="node"><title>__sprintf_chk</title>
<polygon fill="#0ba45b" stroke="#0ba45b" points="648.373,-842.195 557.209,-842.195 557.209,-776.201 648.373,-776.201 648.373,-842.195"/>
<text text-anchor="middle" x="602.791" y="-829.945" font-family="Arial" font-size="10.00" fill="#ffffff">libsystem_c.dylib</text>
<text text-anchor="middle" x="602.791" y="-818.446" font-family="Arial" font-size="10.00" fill="#ffffff">__sprintf_chk</text>
<text text-anchor="middle" x="602.791" y="-806.947" font-family="Arial" font-size="10.00" fill="#ffffff">36.94%</text>
<text text-anchor="middle" x="602.791" y="-795.448" font-family="Arial" font-size="10.00" fill="#ffffff">(0.50%)</text>
<text text-anchor="middle" x="602.791" y="-783.949" font-family="Arial" font-size="10.00" fill="#ffffff">38563357×</text>
</g>
<!-- __vsnprintf_chk -->
<g id="node3" class="node"><title>__vsnprintf_chk</title>
<polygon fill="#0baa41" stroke="#0baa41" points="489.373,-735.702 398.209,-735.702 398.209,-669.708 489.373,-669.708 489.373,-735.702"/>
<text text-anchor="middle" x="443.791" y="-723.452" font-family="Arial" font-size="10.00" fill="#ffffff">libsystem_c.dylib</text>
<text text-anchor="middle" x="443.791" y="-711.953" font-family="Arial" font-size="10.00" fill="#ffffff">__vsnprintf_chk</text>
<text text-anchor="middle" x="443.791" y="-700.454" font-family="Arial" font-size="10.00" fill="#ffffff">41.48%</text>
<text text-anchor="middle" x="443.791" y="-688.955" font-family="Arial" font-size="10.00" fill="#ffffff">(0.03%)</text>
<text text-anchor="middle" x="443.791" y="-677.456" font-family="Arial" font-size="10.00" fill="#ffffff">78281194×</text>
</g>
<!-- __sprintf_chk&#45;&gt;__vsnprintf_chk -->
<g id="edge1" class="edge"><title>__sprintf_chk&#45;&gt;__vsnprintf_chk</title>
<path fill="none" stroke="#0ba35d" stroke-width="1.46" d="M592.393,-776.245C586.929,-764.401 578.979,-752.022 567.791,-744.452 541.958,-726.974 526.829,-744.313 495.482,-735.685"/>
<polygon fill="#0ba35d" stroke="#0ba35d" stroke-width="1.46" points="495.789,-733.578 489.434,-733.757 494.513,-737.58 495.789,-733.578"/>
<text text-anchor="middle" x="612.957" y="-759.45" font-family="Arial" font-size="10.00" fill="#0ba35d">36.44%</text>
<text text-anchor="middle" x="612.957" y="-747.951" font-family="Arial" font-size="10.00" fill="#0ba35d">38563357×</text>
</g>
<!-- dyld_stub_binder&#39;2 -->
<g id="node7" class="node"><title>dyld_stub_binder&#39;2</title>
<polygon fill="#0c5486" stroke="#0c5486" points="155.429,-1268.17 56.1522,-1268.17 56.1522,-1202.17 155.429,-1202.17 155.429,-1268.17"/>
<text text-anchor="middle" x="105.791" y="-1255.92" font-family="Arial" font-size="10.00" fill="#ffffff">libdyld.dylib</text>
<text text-anchor="middle" x="105.791" y="-1244.42" font-family="Arial" font-size="10.00" fill="#ffffff">dyld_stub_binder&#39;2</text>
<text text-anchor="middle" x="105.791" y="-1232.92" font-family="Arial" font-size="10.00" fill="#ffffff">14.76%</text>
<text text-anchor="middle" x="105.791" y="-1221.42" font-family="Arial" font-size="10.00" fill="#ffffff">(0.00%)</text>
<text text-anchor="middle" x="105.791" y="-1209.92" font-family="Arial" font-size="10.00" fill="#ffffff">152×</text>
</g>
<!-- __vsnprintf_chk&#45;&gt;dyld_stub_binder&#39;2 -->
<g id="edge4" class="edge"><title>__vsnprintf_chk&#45;&gt;dyld_stub_binder&#39;2</title>
<path fill="none" stroke="#0c5386" stroke-width="0.58" d="M398.206,-708.157C305.947,-718.433 105.791,-747.698 105.791,-808.198 105.791,-1129.68 105.791,-1129.68 105.791,-1129.68 105.791,-1152.47 105.791,-1178.05 105.791,-1198.2"/>
<polygon fill="#0c5386" stroke="#0c5386" stroke-width="0.58" points="104.461,-1198.36 105.791,-1202.16 107.121,-1198.36 104.461,-1198.36"/>
<text text-anchor="middle" x="122.749" y="-972.437" font-family="Arial" font-size="10.00" fill="#0c5386">14.58%</text>
<text text-anchor="middle" x="122.749" y="-960.938" font-family="Arial" font-size="10.00" fill="#0c5386">21×</text>
</g>
<!-- stpcpy -->
<g id="node8" class="node"><title>stpcpy</title>
<polygon fill="#0d1174" stroke="#0d1174" points="502.373,-554.713 411.209,-554.713 411.209,-488.719 502.373,-488.719 502.373,-554.713"/>
<text text-anchor="middle" x="456.791" y="-542.464" font-family="Arial" font-size="10.00" fill="#ffffff">libsystem_c.dylib</text>
<text text-anchor="middle" x="456.791" y="-530.965" font-family="Arial" font-size="10.00" fill="#ffffff">stpcpy</text>
<text text-anchor="middle" x="456.791" y="-519.466" font-family="Arial" font-size="10.00" fill="#ffffff">0.97%</text>
<text text-anchor="middle" x="456.791" y="-507.967" font-family="Arial" font-size="10.00" fill="#ffffff">(0.01%)</text>
<text text-anchor="middle" x="456.791" y="-496.468" font-family="Arial" font-size="10.00" fill="#ffffff">1154391×</text>
</g>
<!-- __vsnprintf_chk&#45;&gt;stpcpy -->
<g id="edge5" class="edge"><title>__vsnprintf_chk&#45;&gt;stpcpy</title>
<path fill="none" stroke="#0d1174" stroke-width="0.5" d="M446.115,-669.705C448.381,-638.495 451.823,-591.107 454.182,-558.625"/>
<polygon fill="#0d1174" stroke="#0d1174" stroke-width="0.5" points="455.433,-558.32 454.465,-554.74 452.989,-558.142 455.433,-558.32"/>
<text text-anchor="middle" x="470.805" y="-652.957" font-family="Arial" font-size="10.00" fill="#0d1174">0.97%</text>
<text text-anchor="middle" x="470.805" y="-641.458" font-family="Arial" font-size="10.00" fill="#0d1174">1154390×</text>
</g>
<!-- vsnprintf -->
<g id="node9" class="node"><title>vsnprintf</title>
<polygon fill="#0c9490" stroke="#0c9490" points="434.373,-629.208 343.209,-629.208 343.209,-563.214 434.373,-563.214 434.373,-629.208"/>
<text text-anchor="middle" x="388.791" y="-616.959" font-family="Arial" font-size="10.00" fill="#ffffff">libsystem_c.dylib</text>
<text text-anchor="middle" x="388.791" y="-605.46" font-family="Arial" font-size="10.00" fill="#ffffff">vsnprintf</text>
<text text-anchor="middle" x="388.791" y="-593.961" font-family="Arial" font-size="10.00" fill="#ffffff">25.76%</text>
<text text-anchor="middle" x="388.791" y="-582.462" font-family="Arial" font-size="10.00" fill="#ffffff">(0.38%)</text>
<text text-anchor="middle" x="388.791" y="-570.963" font-family="Arial" font-size="10.00" fill="#ffffff">38563358×</text>
</g>
<!-- __vsnprintf_chk&#45;&gt;vsnprintf -->
<g id="edge6" class="edge"><title>__vsnprintf_chk&#45;&gt;vsnprintf</title>
<path fill="none" stroke="#0c9491" stroke-width="1.03" d="M400.381,-669.933C398.127,-667.098 396.114,-664.103 394.458,-660.957 390.219,-652.903 388.112,-643.476 387.207,-634.379"/>
<polygon fill="#0c9491" stroke="#0c9491" stroke-width="1.03" points="388.971,-634.025 386.807,-629.074 385.411,-634.294 388.971,-634.025"/>
<text text-anchor="middle" x="419.957" y="-652.957" font-family="Arial" font-size="10.00" fill="#0c9491">25.66%</text>
<text text-anchor="middle" x="419.957" y="-641.458" font-family="Arial" font-size="10.00" fill="#0c9491">38563357×</text>
</g>
<!-- __v2printf -->
<g id="node4" class="node"><title>__v2printf</title>
<polygon fill="#0c7d8f" stroke="#0c7d8f" points="310.373,-373.725 219.209,-373.725 219.209,-307.731 310.373,-307.731 310.373,-373.725"/>
<text text-anchor="middle" x="264.791" y="-361.476" font-family="Arial" font-size="10.00" fill="#ffffff">libsystem_c.dylib</text>
<text text-anchor="middle" x="264.791" y="-349.977" font-family="Arial" font-size="10.00" fill="#ffffff">__v2printf</text>
<text text-anchor="middle" x="264.791" y="-338.478" font-family="Arial" font-size="10.00" fill="#ffffff">21.60%</text>
<text text-anchor="middle" x="264.791" y="-326.979" font-family="Arial" font-size="10.00" fill="#ffffff">(0.70%)</text>
<text text-anchor="middle" x="264.791" y="-315.479" font-family="Arial" font-size="10.00" fill="#ffffff">38563358×</text>
</g>
<!-- __vfprintf -->
<g id="node5" class="node"><title>__vfprintf</title>
<polygon fill="#0c798e" stroke="#0c798e" points="308.373,-267.232 217.209,-267.232 217.209,-201.238 308.373,-201.238 308.373,-267.232"/>
<text text-anchor="middle" x="262.791" y="-254.982" font-family="Arial" font-size="10.00" fill="#ffffff">libsystem_c.dylib</text>
<text text-anchor="middle" x="262.791" y="-243.483" font-family="Arial" font-size="10.00" fill="#ffffff">__vfprintf</text>
<text text-anchor="middle" x="262.791" y="-231.984" font-family="Arial" font-size="10.00" fill="#ffffff">20.90%</text>
<text text-anchor="middle" x="262.791" y="-220.485" font-family="Arial" font-size="10.00" fill="#ffffff">(20.90%)</text>
<text text-anchor="middle" x="262.791" y="-208.986" font-family="Arial" font-size="10.00" fill="#ffffff">38563358×</text>
</g>
<!-- __v2printf&#45;&gt;__vfprintf -->
<g id="edge2" class="edge"><title>__v2printf&#45;&gt;__vfprintf</title>
<path fill="none" stroke="#0c798e" stroke-width="0.84" d="M264.18,-307.809C263.964,-296.57 263.721,-283.845 263.499,-272.224"/>
<polygon fill="#0c798e" stroke="#0c798e" stroke-width="0.84" points="265.102,-271.887 263.405,-267.319 261.883,-271.949 265.102,-271.887"/>
<text text-anchor="middle" x="289.957" y="-290.98" font-family="Arial" font-size="10.00" fill="#0c798e">20.90%</text>
<text text-anchor="middle" x="289.957" y="-279.481" font-family="Arial" font-size="10.00" fill="#0c798e">38563358×</text>
</g>
<!-- __vsnprintf_chk&#39;2 -->
<g id="node6" class="node"><title>__vsnprintf_chk&#39;2</title>
<polygon fill="#0d1b77" stroke="#0d1b77" points="405.302,-172.238 312.279,-172.238 312.279,-106.244 405.302,-106.244 405.302,-172.238"/>
<text text-anchor="middle" x="358.791" y="-159.988" font-family="Arial" font-size="10.00" fill="#ffffff">libsystem_c.dylib</text>
<text text-anchor="middle" x="358.791" y="-148.489" font-family="Arial" font-size="10.00" fill="#ffffff">__vsnprintf_chk&#39;2</text>
<text text-anchor="middle" x="358.791" y="-136.99" font-family="Arial" font-size="10.00" fill="#ffffff">3.44%</text>
<text text-anchor="middle" x="358.791" y="-125.491" font-family="Arial" font-size="10.00" fill="#ffffff">(0.29%)</text>
<text text-anchor="middle" x="358.791" y="-113.992" font-family="Arial" font-size="10.00" fill="#ffffff">889266008×</text>
</g>
<!-- __vfprintf&#45;&gt;__vsnprintf_chk&#39;2 -->
<g id="edge3" class="edge"><title>__vfprintf&#45;&gt;__vsnprintf_chk&#39;2</title>
<path fill="none" stroke="#0d1b77" stroke-width="0.5" d="M259.308,-201.291C259.928,-194.109 261.794,-186.879 265.897,-180.988 275.91,-166.613 292.168,-157.257 308.305,-151.19"/>
<polygon fill="#0d1b77" stroke="#0d1b77" stroke-width="0.5" points="309.086,-152.211 311.962,-149.869 308.254,-149.906 309.086,-152.211"/>
<text text-anchor="middle" x="294.737" y="-184.487" font-family="Arial" font-size="10.00" fill="#0d1b77">424196929×</text>
</g>
<!-- _platform_memmove$VARIANT$Unknown -->
<g id="node10" class="node"><title>_platform_memmove$VARIANT$Unknown</title>
<polygon fill="#0d1a77" stroke="#0d1a77" points="461.622,-65.7446 255.959,-65.7446 255.959,0.249444 461.622,0.249444 461.622,-65.7446"/>
<text text-anchor="middle" x="358.791" y="-53.4951" font-family="Arial" font-size="10.00" fill="#ffffff">libsystem_platform.dylib</text>
<text text-anchor="middle" x="358.791" y="-41.9961" font-family="Arial" font-size="10.00" fill="#ffffff">_platform_memmove$VARIANT$Unknown</text>
<text text-anchor="middle" x="358.791" y="-30.4971" font-family="Arial" font-size="10.00" fill="#ffffff">3.12%</text>
<text text-anchor="middle" x="358.791" y="-18.998" font-family="Arial" font-size="10.00" fill="#ffffff">(3.12%)</text>
<text text-anchor="middle" x="358.791" y="-7.49902" font-family="Arial" font-size="10.00" fill="#ffffff">425351512×</text>
</g>
<!-- __vsnprintf_chk&#39;2&#45;&gt;_platform_memmove$VARIANT$Unknown -->
<g id="edge7" class="edge"><title>__vsnprintf_chk&#39;2&#45;&gt;_platform_memmove$VARIANT$Unknown</title>
<path fill="none" stroke="#0d1a77" stroke-width="0.5" d="M358.791,-106.322C358.791,-94.6817 358.791,-81.4471 358.791,-69.4959"/>
<polygon fill="#0d1a77" stroke="#0d1a77" stroke-width="0.5" points="360.016,-69.3313 358.791,-65.8313 357.566,-69.3314 360.016,-69.3313"/>
<text text-anchor="middle" x="386.737" y="-89.4932" font-family="Arial" font-size="10.00" fill="#0d1a77">3.12%</text>
<text text-anchor="middle" x="386.737" y="-77.9941" font-family="Arial" font-size="10.00" fill="#0d1a77">425351321×</text>
</g>
<!-- dyld_stub_binder&#39;2&#45;&gt;__sfvwrite -->
<g id="edge21" class="edge"><title>dyld_stub_binder&#39;2&#45;&gt;__sfvwrite</title>
<path fill="none" stroke="#0d387f" stroke-width="0.5" d="M76.189,-1202.01C74.1235,-1199.19 72.1747,-1196.31 70.436,-1193.42 65.1502,-1184.64 60.6252,-1174.53 56.9496,-1164.98"/>
<polygon fill="#0d387f" stroke="#0d387f" stroke-width="0.5" points="58.0154,-1164.33 55.634,-1161.49 55.723,-1165.2 58.0154,-1164.33"/>
<text text-anchor="middle" x="84.9678" y="-1185.42" font-family="Arial" font-size="10.00" fill="#0d387f">9.42%</text>
<text text-anchor="middle" x="84.9678" y="-1173.92" font-family="Arial" font-size="10.00" fill="#0d387f">1×</text>
</g>
<!-- dyld_register_image_state_change_handler -->
<g id="node23" class="node"><title>dyld_register_image_state_change_handler</title>
<polygon fill="#0d2279" stroke="#0d2279" points="426.871,-1161.67 216.71,-1161.67 216.71,-1095.68 426.871,-1095.68 426.871,-1161.67"/>
<text text-anchor="middle" x="321.791" y="-1149.42" font-family="Arial" font-size="10.00" fill="#ffffff">libdyld.dylib</text>
<text text-anchor="middle" x="321.791" y="-1137.93" font-family="Arial" font-size="10.00" fill="#ffffff">dyld_register_image_state_change_handler</text>
<text text-anchor="middle" x="321.791" y="-1126.43" font-family="Arial" font-size="10.00" fill="#ffffff">4.81%</text>
<text text-anchor="middle" x="321.791" y="-1114.93" font-family="Arial" font-size="10.00" fill="#ffffff">(0.00%)</text>
<text text-anchor="middle" x="321.791" y="-1103.43" font-family="Arial" font-size="10.00" fill="#ffffff">8×</text>
</g>
<!-- dyld_stub_binder&#39;2&#45;&gt;dyld_register_image_state_change_handler -->
<g id="edge22" class="edge"><title>dyld_stub_binder&#39;2&#45;&gt;dyld_register_image_state_change_handler</title>
<path fill="none" stroke="#0d2279" stroke-width="0.5" d="M155.617,-1210.07C184.347,-1196.17 220.905,-1178.48 252.413,-1163.24"/>
<polygon fill="#0d2279" stroke="#0d2279" stroke-width="0.5" points="253.22,-1164.21 255.837,-1161.58 252.153,-1162 253.22,-1164.21"/>
<text text-anchor="middle" x="247.968" y="-1185.42" font-family="Arial" font-size="10.00" fill="#0d2279">4.81%</text>
<text text-anchor="middle" x="247.968" y="-1173.92" font-family="Arial" font-size="10.00" fill="#0d2279">2×</text>
</g>
<!-- stpcpy&#45;&gt;__vsnprintf_chk&#39;2 -->
<g id="edge30" class="edge"><title>stpcpy&#45;&gt;__vsnprintf_chk&#39;2</title>
<path fill="none" stroke="#0d1174" stroke-width="0.5" d="M456.791,-488.934C456.791,-463.512 456.791,-426.956 456.791,-394.975 456.791,-394.975 456.791,-394.975 456.791,-233.235 456.791,-203.484 432.731,-180.385 408.454,-164.65"/>
<polygon fill="#0d1174" stroke="#0d1174" stroke-width="0.5" points="409.105,-163.612 405.494,-162.767 407.79,-165.679 409.105,-163.612"/>
<text text-anchor="middle" x="479.176" y="-344.227" font-family="Arial" font-size="10.00" fill="#0d1174">0.96%</text>
<text text-anchor="middle" x="479.176" y="-332.728" font-family="Arial" font-size="10.00" fill="#0d1174">2308782×</text>
</g>
<!-- vsnprintf&#45;&gt;__vsnprintf_chk&#39;2 -->
<g id="edge31" class="edge"><title>vsnprintf&#45;&gt;__vsnprintf_chk&#39;2</title>
<path fill="none" stroke="#0d1776" stroke-width="0.5" d="M388.791,-563.384C388.791,-533.612 388.791,-487.903 388.791,-448.221 388.791,-448.221 388.791,-448.221 388.791,-233.235 388.791,-213.514 382.604,-192.528 375.85,-175.492"/>
<polygon fill="#0d1776" stroke="#0d1776" stroke-width="0.5" points="376.942,-174.924 374.493,-172.139 374.671,-175.843 376.942,-174.924"/>
<text text-anchor="middle" x="413.957" y="-344.227" font-family="Arial" font-size="10.00" fill="#0d1776">2.46%</text>
<text text-anchor="middle" x="413.957" y="-332.728" font-family="Arial" font-size="10.00" fill="#0d1776">38563358×</text>
</g>
<!-- _vsnprintf -->
<g id="node17" class="node"><title>_vsnprintf</title>
<polygon fill="#0c8691" stroke="#0c8691" points="374.373,-480.218 283.209,-480.218 283.209,-414.224 374.373,-414.224 374.373,-480.218"/>
<text text-anchor="middle" x="328.791" y="-467.969" font-family="Arial" font-size="10.00" fill="#ffffff">libsystem_c.dylib</text>
<text text-anchor="middle" x="328.791" y="-456.47" font-family="Arial" font-size="10.00" fill="#ffffff">_vsnprintf</text>
<text text-anchor="middle" x="328.791" y="-444.971" font-family="Arial" font-size="10.00" fill="#ffffff">22.92%</text>
<text text-anchor="middle" x="328.791" y="-433.472" font-family="Arial" font-size="10.00" fill="#ffffff">(1.32%)</text>
<text text-anchor="middle" x="328.791" y="-421.973" font-family="Arial" font-size="10.00" fill="#ffffff">38563358×</text>
</g>
<!-- vsnprintf&#45;&gt;_vsnprintf -->
<g id="edge32" class="edge"><title>vsnprintf&#45;&gt;_vsnprintf</title>
<path fill="none" stroke="#0c8691" stroke-width="0.92" d="M343.006,-569.248C338.419,-564.886 334.384,-559.962 331.458,-554.464 320.305,-533.503 319.691,-506.77 321.838,-485.364"/>
<polygon fill="#0c8691" stroke="#0c8691" stroke-width="0.92" points="323.538,-485.282 322.404,-480.324 320.199,-484.907 323.538,-485.282"/>
<text text-anchor="middle" x="356.957" y="-525.215" font-family="Arial" font-size="10.00" fill="#0c8691">22.92%</text>
<text text-anchor="middle" x="356.957" y="-513.716" font-family="Arial" font-size="10.00" fill="#0c8691">38563358×</text>
</g>
<!-- _dyld_start -->
<g id="node11" class="node"><title>_dyld_start</title>
<polygon fill="#ff0000" stroke="#ff0000" points="891.207,-1268.17 826.374,-1268.17 826.374,-1202.17 891.207,-1202.17 891.207,-1268.17"/>
<text text-anchor="middle" x="858.791" y="-1255.92" font-family="Arial" font-size="10.00" fill="#ffffff">dyld</text>
<text text-anchor="middle" x="858.791" y="-1244.42" font-family="Arial" font-size="10.00" fill="#ffffff">_dyld_start</text>
<text text-anchor="middle" x="858.791" y="-1232.92" font-family="Arial" font-size="10.00" fill="#ffffff">100.00%</text>
<text text-anchor="middle" x="858.791" y="-1221.42" font-family="Arial" font-size="10.00" fill="#ffffff">(0.00%)</text>
<text text-anchor="middle" x="858.791" y="-1209.92" font-family="Arial" font-size="10.00" fill="#ffffff">0×</text>
</g>
<!-- main -->
<g id="node12" class="node"><title>main</title>
<polygon fill="#ff0000" stroke="#ff0000" points="894.325,-1161.67 823.256,-1161.67 823.256,-1095.68 894.325,-1095.68 894.325,-1161.67"/>
<text text-anchor="middle" x="858.791" y="-1149.42" font-family="Arial" font-size="10.00" fill="#ffffff">a.forvalg.out</text>
<text text-anchor="middle" x="858.791" y="-1137.93" font-family="Arial" font-size="10.00" fill="#ffffff">main</text>
<text text-anchor="middle" x="858.791" y="-1126.43" font-family="Arial" font-size="10.00" fill="#ffffff">100.00%</text>
<text text-anchor="middle" x="858.791" y="-1114.93" font-family="Arial" font-size="10.00" fill="#ffffff">(0.75%)</text>
<text text-anchor="middle" x="858.791" y="-1103.43" font-family="Arial" font-size="10.00" fill="#ffffff">1×</text>
</g>
<!-- _dyld_start&#45;&gt;main -->
<g id="edge8" class="edge"><title>_dyld_start&#45;&gt;main</title>
<path fill="none" stroke="#ff0000" stroke-width="4" d="M858.791,-1202.25C858.791,-1192.72 858.791,-1182.12 858.791,-1172.03"/>
<polygon fill="#ff0000" stroke="#ff0000" stroke-width="4" points="862.291,-1171.76 858.791,-1161.76 855.291,-1171.76 862.291,-1171.76"/>
<text text-anchor="middle" x="878.529" y="-1185.42" font-family="Arial" font-size="10.00" fill="#ff0000">100.00%</text>
<text text-anchor="middle" x="878.529" y="-1173.92" font-family="Arial" font-size="10.00" fill="#ff0000">1×</text>
</g>
<!-- destroy_hash_table -->
<g id="node18" class="node"><title>destroy_hash_table</title>
<polygon fill="#dad906" stroke="#dad906" points="844.576,-948.688 741.005,-948.688 741.005,-882.694 844.576,-882.694 844.576,-948.688"/>
<text text-anchor="middle" x="792.791" y="-936.438" font-family="Arial" font-size="10.00" fill="#ffffff">a.forvalg.out</text>
<text text-anchor="middle" x="792.791" y="-924.939" font-family="Arial" font-size="10.00" fill="#ffffff">destroy_hash_table</text>
<text text-anchor="middle" x="792.791" y="-913.44" font-family="Arial" font-size="10.00" fill="#ffffff">75.10%</text>
<text text-anchor="middle" x="792.791" y="-901.941" font-family="Arial" font-size="10.00" fill="#ffffff">(1.06%)</text>
<text text-anchor="middle" x="792.791" y="-890.442" font-family="Arial" font-size="10.00" fill="#ffffff">3272035399×</text>
</g>
<!-- main&#45;&gt;destroy_hash_table -->
<g id="edge25" class="edge"><title>main&#45;&gt;destroy_hash_table</title>
<path fill="none" stroke="#0aac39" stroke-width="1.71" d="M860.346,-1095.61C861.864,-1053 862.382,-980.406 849.791,-957.438 849.155,-956.278 848.47,-955.144 847.741,-954.034"/>
<polygon fill="#0aac39" stroke="#0aac39" stroke-width="1.71" points="849.469,-952.545 843.762,-948.692 845.821,-955.263 849.469,-952.545"/>
<text text-anchor="middle" x="886.957" y="-1025.68" font-family="Arial" font-size="10.00" fill="#0aac39">42.79%</text>
<text text-anchor="middle" x="886.957" y="-1014.18" font-family="Arial" font-size="10.00" fill="#0aac39">79435497×</text>
</g>
<!-- doubles -->
<g id="node20" class="node"><title>doubles</title>
<polygon fill="#0d1676" stroke="#0d1676" points="837.325,-1055.18 766.256,-1055.18 766.256,-989.187 837.325,-989.187 837.325,-1055.18"/>
<text text-anchor="middle" x="801.791" y="-1042.93" font-family="Arial" font-size="10.00" fill="#ffffff">a.forvalg.out</text>
<text text-anchor="middle" x="801.791" y="-1031.43" font-family="Arial" font-size="10.00" fill="#ffffff">doubles</text>
<text text-anchor="middle" x="801.791" y="-1019.93" font-family="Arial" font-size="10.00" fill="#ffffff">2.17%</text>
<text text-anchor="middle" x="801.791" y="-1008.43" font-family="Arial" font-size="10.00" fill="#ffffff">(1.41%)</text>
<text text-anchor="middle" x="801.791" y="-996.936" font-family="Arial" font-size="10.00" fill="#ffffff">38563357×</text>
</g>
<!-- main&#45;&gt;doubles -->
<g id="edge26" class="edge"><title>main&#45;&gt;doubles</title>
<path fill="none" stroke="#0d1676" stroke-width="0.5" d="M823.193,-1110.19C814.513,-1104.1 806.331,-1096.37 801.458,-1086.93 797.028,-1078.35 795.658,-1068.21 795.775,-1058.57"/>
<polygon fill="#0d1676" stroke="#0d1676" stroke-width="0.5" points="797,-1058.58 795.883,-1055.04 794.551,-1058.5 797,-1058.58"/>
<text text-anchor="middle" x="826.957" y="-1078.93" font-family="Arial" font-size="10.00" fill="#0d1676">2.17%</text>
<text text-anchor="middle" x="826.957" y="-1067.43" font-family="Arial" font-size="10.00" fill="#0d1676">38563357×</text>
</g>
<!-- in_hash_table_p -->
<g id="node25" class="node"><title>in_hash_table_p</title>
<polygon fill="#24bb09" stroke="#24bb09" points="1007.69,-1055.18 917.891,-1055.18 917.891,-989.187 1007.69,-989.187 1007.69,-1055.18"/>
<text text-anchor="middle" x="962.791" y="-1042.93" font-family="Arial" font-size="10.00" fill="#ffffff">a.forvalg.out</text>
<text text-anchor="middle" x="962.791" y="-1031.43" font-family="Arial" font-size="10.00" fill="#ffffff">in_hash_table_p</text>
<text text-anchor="middle" x="962.791" y="-1019.93" font-family="Arial" font-size="10.00" fill="#ffffff">53.82%</text>
<text text-anchor="middle" x="962.791" y="-1008.43" font-family="Arial" font-size="10.00" fill="#ffffff">(12.09%)</text>
<text text-anchor="middle" x="962.791" y="-996.936" font-family="Arial" font-size="10.00" fill="#ffffff">31546369×</text>
</g>
<!-- main&#45;&gt;in_hash_table_p -->
<g id="edge27" class="edge"><title>main&#45;&gt;in_hash_table_p</title>
<path fill="none" stroke="#24bb09" stroke-width="2.15" d="M890.559,-1095.76C901.645,-1084.62 914.184,-1072.02 925.666,-1060.48"/>
<polygon fill="#24bb09" stroke="#24bb09" stroke-width="2.15" points="927.519,-1062.24 930.858,-1055.27 923.898,-1058.64 927.519,-1062.24"/>
<text text-anchor="middle" x="944.957" y="-1078.93" font-family="Arial" font-size="10.00" fill="#24bb09">53.82%</text>
<text text-anchor="middle" x="944.957" y="-1067.43" font-family="Arial" font-size="10.00" fill="#24bb09">31546369×</text>
</g>
<!-- _platform_memcmp -->
<g id="node13" class="node"><title>_platform_memcmp</title>
<polygon fill="#0d1074" stroke="#0d1074" points="787.995,-842.195 665.586,-842.195 665.586,-776.201 787.995,-776.201 787.995,-842.195"/>
<text text-anchor="middle" x="726.791" y="-829.945" font-family="Arial" font-size="10.00" fill="#ffffff">libsystem_platform.dylib</text>
<text text-anchor="middle" x="726.791" y="-818.446" font-family="Arial" font-size="10.00" fill="#ffffff">_platform_memcmp</text>
<text text-anchor="middle" x="726.791" y="-806.947" font-family="Arial" font-size="10.00" fill="#ffffff">0.71%</text>
<text text-anchor="middle" x="726.791" y="-795.448" font-family="Arial" font-size="10.00" fill="#ffffff">(0.71%)</text>
<text text-anchor="middle" x="726.791" y="-783.949" font-family="Arial" font-size="10.00" fill="#ffffff">141374280×</text>
</g>
<!-- _platform_strcmp -->
<g id="node14" class="node"><title>_platform_strcmp</title>
<polygon fill="#0c9b7b" stroke="#0c9b7b" points="919.995,-842.195 797.586,-842.195 797.586,-776.201 919.995,-776.201 919.995,-842.195"/>
<text text-anchor="middle" x="858.791" y="-829.945" font-family="Arial" font-size="10.00" fill="#ffffff">libsystem_platform.dylib</text>
<text text-anchor="middle" x="858.791" y="-818.446" font-family="Arial" font-size="10.00" fill="#ffffff">_platform_strcmp</text>
<text text-anchor="middle" x="858.791" y="-806.947" font-family="Arial" font-size="10.00" fill="#ffffff">30.47%</text>
<text text-anchor="middle" x="858.791" y="-795.448" font-family="Arial" font-size="10.00" fill="#ffffff">(30.47%)</text>
<text text-anchor="middle" x="858.791" y="-783.949" font-family="Arial" font-size="10.00" fill="#ffffff">3050071717×</text>
</g>
<!-- _qsort -->
<g id="node15" class="node"><title>_qsort</title>
<polygon fill="#0d247a" stroke="#0d247a" points="565.123,-735.702 498.458,-735.702 498.458,-669.708 565.123,-669.708 565.123,-735.702"/>
<text text-anchor="middle" x="531.791" y="-723.452" font-family="Arial" font-size="10.00" fill="#ffffff">dyld</text>
<text text-anchor="middle" x="531.791" y="-711.953" font-family="Arial" font-size="10.00" fill="#ffffff">_qsort</text>
<text text-anchor="middle" x="531.791" y="-700.454" font-family="Arial" font-size="10.00" fill="#ffffff">5.40%</text>
<text text-anchor="middle" x="531.791" y="-688.955" font-family="Arial" font-size="10.00" fill="#ffffff">(3.00%)</text>
<text text-anchor="middle" x="531.791" y="-677.456" font-family="Arial" font-size="10.00" fill="#ffffff">38563368×</text>
</g>
<!-- rank_first_compare -->
<g id="node16" class="node"><title>rank_first_compare</title>
<polygon fill="#0d1776" stroke="#0d1776" points="582.382,-629.208 481.199,-629.208 481.199,-563.214 582.382,-563.214 582.382,-629.208"/>
<text text-anchor="middle" x="531.791" y="-616.959" font-family="Arial" font-size="10.00" fill="#ffffff">a.forvalg.out</text>
<text text-anchor="middle" x="531.791" y="-605.46" font-family="Arial" font-size="10.00" fill="#ffffff">rank_first_compare</text>
<text text-anchor="middle" x="531.791" y="-593.961" font-family="Arial" font-size="10.00" fill="#ffffff">2.40%</text>
<text text-anchor="middle" x="531.791" y="-582.462" font-family="Arial" font-size="10.00" fill="#ffffff">(2.40%)</text>
<text text-anchor="middle" x="531.791" y="-570.963" font-family="Arial" font-size="10.00" fill="#ffffff">265997732×</text>
</g>
<!-- _qsort&#45;&gt;rank_first_compare -->
<g id="edge9" class="edge"><title>_qsort&#45;&gt;rank_first_compare</title>
<path fill="none" stroke="#0d1776" stroke-width="0.5" d="M531.791,-669.785C531.791,-658.146 531.791,-644.911 531.791,-632.96"/>
<polygon fill="#0d1776" stroke="#0d1776" stroke-width="0.5" points="533.016,-632.795 531.791,-629.295 530.566,-632.795 533.016,-632.795"/>
<text text-anchor="middle" x="559.737" y="-652.957" font-family="Arial" font-size="10.00" fill="#0d1776">2.40%</text>
<text text-anchor="middle" x="559.737" y="-641.458" font-family="Arial" font-size="10.00" fill="#0d1776">265997732×</text>
</g>
<!-- _vsnprintf&#45;&gt;__v2printf -->
<g id="edge10" class="edge"><title>_vsnprintf&#45;&gt;__v2printf</title>
<path fill="none" stroke="#0c7d8f" stroke-width="0.86" d="M283.147,-419.772C278.601,-415.513 274.538,-410.746 271.458,-405.474 266.684,-397.299 264.347,-387.517 263.354,-378.099"/>
<polygon fill="#0c7d8f" stroke="#0c7d8f" stroke-width="0.86" points="264.958,-377.963 262.97,-373.514 261.75,-378.232 264.958,-377.963"/>
<text text-anchor="middle" x="296.957" y="-397.474" font-family="Arial" font-size="10.00" fill="#0c7d8f">21.60%</text>
<text text-anchor="middle" x="296.957" y="-385.975" font-family="Arial" font-size="10.00" fill="#0c7d8f">38563358×</text>
</g>
<!-- _vsnprintf&#45;&gt;__vsnprintf_chk&#39;2 -->
<g id="edge11" class="edge"><title>_vsnprintf&#45;&gt;__vsnprintf_chk&#39;2</title>
<path fill="none" stroke="#0d1b77" stroke-width="0.5" d="M327.559,-414.425C326.634,-380.148 326.288,-324.034 331.458,-275.982 335.163,-241.557 343.351,-202.899 349.804,-175.67"/>
<polygon fill="#0d1b77" stroke="#0d1b77" stroke-width="0.5" points="351.042,-175.761 350.663,-172.073 348.659,-175.193 351.042,-175.761"/>
<text text-anchor="middle" x="356.957" y="-285.231" font-family="Arial" font-size="10.00" fill="#0d1b77">38563358×</text>
</g>
<!-- destroy_hash_table&#45;&gt;__sprintf_chk -->
<g id="edge12" class="edge"><title>destroy_hash_table&#45;&gt;__sprintf_chk</title>
<path fill="none" stroke="#0ba35b" stroke-width="1.47" d="M741.083,-889.556C735.947,-887.25 730.787,-885.008 725.791,-882.943 714.748,-878.379 711.166,-879.246 700.458,-873.943 684.136,-865.86 667.226,-855.587 652.156,-845.661"/>
<polygon fill="#0ba35b" stroke="#0ba35b" stroke-width="1.47" points="652.953,-843.627 646.692,-842.025 650.587,-847.182 652.953,-843.627"/>
<text text-anchor="middle" x="725.957" y="-865.943" font-family="Arial" font-size="10.00" fill="#0ba35b">36.87%</text>
<text text-anchor="middle" x="725.957" y="-854.444" font-family="Arial" font-size="10.00" fill="#0ba35b">38563356×</text>
</g>
<!-- destroy_hash_table&#45;&gt;_platform_memcmp -->
<g id="edge13" class="edge"><title>destroy_hash_table&#45;&gt;_platform_memcmp</title>
<path fill="none" stroke="#0d1074" stroke-width="0.5" d="M772.63,-882.772C765.151,-870.931 756.63,-857.44 748.98,-845.329"/>
<polygon fill="#0d1074" stroke="#0d1074" stroke-width="0.5" points="749.96,-844.587 747.055,-842.282 747.889,-845.895 749.96,-844.587"/>
<text text-anchor="middle" x="793.737" y="-865.943" font-family="Arial" font-size="10.00" fill="#0d1074">0.71%</text>
<text text-anchor="middle" x="793.737" y="-854.444" font-family="Arial" font-size="10.00" fill="#0d1074">141374249×</text>
</g>
<!-- destroy_hash_table&#45;&gt;_platform_strcmp -->
<g id="edge14" class="edge"><title>destroy_hash_table&#45;&gt;_platform_strcmp</title>
<path fill="none" stroke="#0c9b7b" stroke-width="1.22" d="M817.94,-882.532C819.973,-879.665 821.95,-876.776 823.791,-873.943 829.305,-865.458 834.797,-856.036 839.741,-847.097"/>
<polygon fill="#0c9b7b" stroke="#0c9b7b" stroke-width="1.22" points="841.475,-847.938 842.427,-842.19 838.098,-846.09 841.475,-847.938"/>
<text text-anchor="middle" x="868.518" y="-865.943" font-family="Arial" font-size="10.00" fill="#0c9b7b">30.47%</text>
<text text-anchor="middle" x="868.518" y="-854.444" font-family="Arial" font-size="10.00" fill="#0c9b7b">3050071260×</text>
</g>
<!-- qsort -->
<g id="node19" class="node"><title>qsort</title>
<polygon fill="#0d3e81" stroke="#0d3e81" points="538.373,-842.195 447.209,-842.195 447.209,-776.201 538.373,-776.201 538.373,-842.195"/>
<text text-anchor="middle" x="492.791" y="-829.945" font-family="Arial" font-size="10.00" fill="#ffffff">libsystem_c.dylib</text>
<text text-anchor="middle" x="492.791" y="-818.446" font-family="Arial" font-size="10.00" fill="#ffffff">qsort</text>
<text text-anchor="middle" x="492.791" y="-806.947" font-family="Arial" font-size="10.00" fill="#ffffff">10.68%</text>
<text text-anchor="middle" x="492.791" y="-795.448" font-family="Arial" font-size="10.00" fill="#ffffff">(0.29%)</text>
<text text-anchor="middle" x="492.791" y="-783.949" font-family="Arial" font-size="10.00" fill="#ffffff">38563368×</text>
</g>
<!-- destroy_hash_table&#45;&gt;qsort -->
<g id="edge15" class="edge"><title>destroy_hash_table&#45;&gt;qsort</title>
<path fill="none" stroke="#0d267a" stroke-width="0.5" d="M740.816,-887.845C735.824,-885.945 730.767,-884.263 725.791,-882.943 674.809,-869.424 657.975,-889.109 607.458,-873.943 584.671,-867.103 561.388,-855.231 541.809,-843.573"/>
<polygon fill="#0d267a" stroke="#0d267a" stroke-width="0.5" points="542.079,-842.307 538.448,-841.553 540.817,-844.407 542.079,-842.307"/>
<text text-anchor="middle" x="632.957" y="-865.943" font-family="Arial" font-size="10.00" fill="#0d267a">5.76%</text>
<text text-anchor="middle" x="632.957" y="-854.444" font-family="Arial" font-size="10.00" fill="#0d267a">38563356×</text>
</g>
<!-- qsort&#45;&gt;__vsnprintf_chk -->
<g id="edge28" class="edge"><title>qsort&#45;&gt;__vsnprintf_chk</title>
<path fill="none" stroke="#0d2279" stroke-width="0.5" d="M462.692,-776.324C460.744,-773.44 458.963,-770.466 457.458,-767.45 453.093,-758.701 450.118,-748.597 448.091,-739.049"/>
<polygon fill="#0d2279" stroke="#0d2279" stroke-width="0.5" points="449.28,-738.749 447.386,-735.561 446.879,-739.234 449.28,-738.749"/>
<text text-anchor="middle" x="482.957" y="-759.45" font-family="Arial" font-size="10.00" fill="#0d2279">5.00%</text>
<text text-anchor="middle" x="482.957" y="-747.951" font-family="Arial" font-size="10.00" fill="#0d2279">38563357×</text>
</g>
<!-- qsort&#45;&gt;_qsort -->
<g id="edge29" class="edge"><title>qsort&#45;&gt;_qsort</title>
<path fill="none" stroke="#0d247a" stroke-width="0.5" d="M504.704,-776.279C509.086,-764.538 514.073,-751.176 518.563,-739.144"/>
<polygon fill="#0d247a" stroke="#0d247a" stroke-width="0.5" points="519.74,-739.496 519.816,-735.788 517.444,-738.639 519.74,-739.496"/>
<text text-anchor="middle" x="540.957" y="-759.45" font-family="Arial" font-size="10.00" fill="#0d247a">5.40%</text>
<text text-anchor="middle" x="540.957" y="-747.951" font-family="Arial" font-size="10.00" fill="#0d247a">38563368×</text>
</g>
<!-- doubles&#45;&gt;destroy_hash_table -->
<g id="edge16" class="edge"><title>doubles&#45;&gt;destroy_hash_table</title>
<path fill="none" stroke="#0d1074" stroke-width="0.5" d="M796.87,-989.188C796.504,-986.234 796.172,-983.282 795.897,-980.437 795.022,-971.365 794.388,-961.543 793.932,-952.388"/>
<polygon fill="#0d1074" stroke="#0d1074" stroke-width="0.5" points="795.137,-951.947 793.747,-948.51 792.69,-952.064 795.137,-951.947"/>
<text text-anchor="middle" x="824.737" y="-972.437" font-family="Arial" font-size="10.00" fill="#0d1074">0.76%</text>
<text text-anchor="middle" x="824.737" y="-960.938" font-family="Arial" font-size="10.00" fill="#0d1074">141374250×</text>
</g>
<!-- dyld::notifyBatchPartial(dyld_image_states, bool, char const* (*)(dyld_image_states, unsigned int, dyld_image_info const*)) -->
<g id="node21" class="node"><title>dyld::notifyBatchPartial(dyld_image_states, bool, char const* (*)(dyld_image_states, unsigned int, dyld_image_info const*))</title>
<polygon fill="#0d2279" stroke="#0d2279" points="721.414,-948.688 162.167,-948.688 162.167,-882.694 721.414,-882.694 721.414,-948.688"/>
<text text-anchor="middle" x="441.791" y="-936.438" font-family="Arial" font-size="10.00" fill="#ffffff">dyld</text>
<text text-anchor="middle" x="441.791" y="-924.939" font-family="Arial" font-size="10.00" fill="#ffffff">dyld::notifyBatchPartial(dyld_image_states, bool, char const* (*)(dyld_image_states, unsigned int, dyld_image_info const*))</text>
<text text-anchor="middle" x="441.791" y="-913.44" font-family="Arial" font-size="10.00" fill="#ffffff">4.81%</text>
<text text-anchor="middle" x="441.791" y="-901.941" font-family="Arial" font-size="10.00" fill="#ffffff">(0.00%)</text>
<text text-anchor="middle" x="441.791" y="-890.442" font-family="Arial" font-size="10.00" fill="#ffffff">11×</text>
</g>
<!-- dyld::notifyBatchPartial(dyld_image_states, bool, char const* (*)(dyld_image_states, unsigned int, dyld_image_info const*))&#45;&gt;qsort -->
<g id="edge17" class="edge"><title>dyld::notifyBatchPartial(dyld_image_states, bool, char const* (*)(dyld_image_states, unsigned int, dyld_image_info const*))&#45;&gt;qsort</title>
<path fill="none" stroke="#0d2279" stroke-width="0.5" d="M457.369,-882.772C463.099,-871.032 469.621,-857.669 475.494,-845.637"/>
<polygon fill="#0d2279" stroke="#0d2279" stroke-width="0.5" points="476.697,-845.964 477.131,-842.282 474.495,-844.89 476.697,-845.964"/>
<text text-anchor="middle" x="487.968" y="-865.943" font-family="Arial" font-size="10.00" fill="#0d2279">4.81%</text>
<text text-anchor="middle" x="487.968" y="-854.444" font-family="Arial" font-size="10.00" fill="#0d2279">11×</text>
</g>
<!-- dyld::registerImageStateBatchChangeHandler(dyld_image_states, char const* (*)(dyld_image_states, unsigned int, dyld_image_info const*)) -->
<g id="node22" class="node"><title>dyld::registerImageStateBatchChangeHandler(dyld_image_states, char const* (*)(dyld_image_states, unsigned int, dyld_image_info const*))</title>
<polygon fill="#0d2279" stroke="#0d2279" points="757.741,-1055.18 119.84,-1055.18 119.84,-989.187 757.741,-989.187 757.741,-1055.18"/>
<text text-anchor="middle" x="438.791" y="-1042.93" font-family="Arial" font-size="10.00" fill="#ffffff">dyld</text>
<text text-anchor="middle" x="438.791" y="-1031.43" font-family="Arial" font-size="10.00" fill="#ffffff">dyld::registerImageStateBatchChangeHandler(dyld_image_states, char const* (*)(dyld_image_states, unsigned int, dyld_image_info const*))</text>
<text text-anchor="middle" x="438.791" y="-1019.93" font-family="Arial" font-size="10.00" fill="#ffffff">4.81%</text>
<text text-anchor="middle" x="438.791" y="-1008.43" font-family="Arial" font-size="10.00" fill="#ffffff">(0.00%)</text>
<text text-anchor="middle" x="438.791" y="-996.936" font-family="Arial" font-size="10.00" fill="#ffffff">3×</text>
</g>
<!-- dyld::registerImageStateBatchChangeHandler(dyld_image_states, char const* (*)(dyld_image_states, unsigned int, dyld_image_info const*))&#45;&gt;dyld::notifyBatchPartial(dyld_image_states, bool, char const* (*)(dyld_image_states, unsigned int, dyld_image_info const*)) -->
<g id="edge18" class="edge"><title>dyld::registerImageStateBatchChangeHandler(dyld_image_states, char const* (*)(dyld_image_states, unsigned int, dyld_image_info const*))&#45;&gt;dyld::notifyBatchPartial(dyld_image_states, bool, char const* (*)(dyld_image_states, unsigned int, dyld_image_info const*))</title>
<path fill="none" stroke="#0d2279" stroke-width="0.5" d="M439.707,-989.265C440.041,-977.625 440.421,-964.39 440.764,-952.439"/>
<polygon fill="#0d2279" stroke="#0d2279" stroke-width="0.5" points="441.993,-952.308 440.869,-948.775 439.544,-952.238 441.993,-952.308"/>
<text text-anchor="middle" x="454.968" y="-972.437" font-family="Arial" font-size="10.00" fill="#0d2279">4.81%</text>
<text text-anchor="middle" x="454.968" y="-960.938" font-family="Arial" font-size="10.00" fill="#0d2279">3×</text>
</g>
<!-- dyld_register_image_state_change_handler&#45;&gt;dyld::registerImageStateBatchChangeHandler(dyld_image_states, char const* (*)(dyld_image_states, unsigned int, dyld_image_info const*)) -->
<g id="edge19" class="edge"><title>dyld_register_image_state_change_handler&#45;&gt;dyld::registerImageStateBatchChangeHandler(dyld_image_states, char const* (*)(dyld_image_states, unsigned int, dyld_image_info const*))</title>
<path fill="none" stroke="#0d2279" stroke-width="0.5" d="M357.53,-1095.76C371.013,-1083.72 386.406,-1069.97 400.142,-1057.7"/>
<polygon fill="#0d2279" stroke="#0d2279" stroke-width="0.5" points="401.072,-1058.51 402.867,-1055.27 399.44,-1056.69 401.072,-1058.51"/>
<text text-anchor="middle" x="404.968" y="-1078.93" font-family="Arial" font-size="10.00" fill="#0d2279">4.81%</text>
<text text-anchor="middle" x="404.968" y="-1067.43" font-family="Arial" font-size="10.00" fill="#0d2279">3×</text>
</g>
<!-- dyld_register_image_state_change_handler&#45;&gt;dyld_register_image_state_change_handler -->
<g id="edge20" class="edge"><title>dyld_register_image_state_change_handler&#45;&gt;dyld_register_image_state_change_handler</title>
<path fill="none" stroke="#0d2279" stroke-width="0.5" d="M426.983,-1135.17C432.69,-1133.58 436.081,-1131.42 436.081,-1128.68 436.081,-1126.53 434.011,-1124.75 430.384,-1123.31"/>
<polygon fill="#0d2279" stroke="#0d2279" stroke-width="0.5" points="430.69,-1122.12 426.983,-1122.19 429.922,-1124.45 430.69,-1122.12"/>
<text text-anchor="middle" x="441.781" y="-1126.43" font-family="Arial" font-size="10.00" fill="#0d2279">4×</text>
</g>
<!-- hash -->
<g id="node24" class="node"><title>hash</title>
<polygon fill="#0d3e80" stroke="#0d3e80" points="998.325,-948.688 927.256,-948.688 927.256,-882.694 998.325,-882.694 998.325,-948.688"/>
<text text-anchor="middle" x="962.791" y="-936.438" font-family="Arial" font-size="10.00" fill="#ffffff">a.forvalg.out</text>
<text text-anchor="middle" x="962.791" y="-924.939" font-family="Arial" font-size="10.00" fill="#ffffff">hash</text>
<text text-anchor="middle" x="962.791" y="-913.44" font-family="Arial" font-size="10.00" fill="#ffffff">10.64%</text>
<text text-anchor="middle" x="962.791" y="-901.941" font-family="Arial" font-size="10.00" fill="#ffffff">(10.64%)</text>
<text text-anchor="middle" x="962.791" y="-890.442" font-family="Arial" font-size="10.00" fill="#ffffff">32700760×</text>
</g>
<!-- in_hash_table_p&#45;&gt;destroy_hash_table -->
<g id="edge23" class="edge"><title>in_hash_table_p&#45;&gt;destroy_hash_table</title>
<path fill="none" stroke="#0b9c77" stroke-width="1.26" d="M917.96,-992.635C911.686,-988.57 905.335,-984.418 899.335,-980.437 884.274,-970.441 881.153,-966.964 865.791,-957.438 860.596,-954.218 855.136,-950.954 849.637,-947.748"/>
<polygon fill="#0b9c77" stroke="#0b9c77" stroke-width="1.26" points="850.411,-945.932 844.583,-944.824 848.448,-949.325 850.411,-945.932"/>
<text text-anchor="middle" x="929.518" y="-972.437" font-family="Arial" font-size="10.00" fill="#0b9c77">31.46%</text>
<text text-anchor="middle" x="929.518" y="-960.938" font-family="Arial" font-size="10.00" fill="#0b9c77">3050071261×</text>
</g>
<!-- in_hash_table_p&#45;&gt;hash -->
<g id="edge24" class="edge"><title>in_hash_table_p&#45;&gt;hash</title>
<path fill="none" stroke="#0d3c80" stroke-width="0.5" d="M962.791,-989.265C962.791,-977.625 962.791,-964.39 962.791,-952.439"/>
<polygon fill="#0d3c80" stroke="#0d3c80" stroke-width="0.5" points="964.016,-952.275 962.791,-948.775 961.566,-952.275 964.016,-952.275"/>
<text text-anchor="middle" x="987.957" y="-972.437" font-family="Arial" font-size="10.00" fill="#0d3c80">10.27%</text>
<text text-anchor="middle" x="987.957" y="-960.938" font-family="Arial" font-size="10.00" fill="#0d3c80">31546369×</text>
</g>
</g>
</svg>
