<?xml version="1.0" encoding="UTF-8" standalone="no"?>
<!DOCTYPE svg PUBLIC "-//W3C//DTD SVG 1.1//EN"
 "http://www.w3.org/Graphics/SVG/1.1/DTD/svg11.dtd">
<!-- Generated by graphviz version 2.38.0 (20140413.2041)
 -->
<!-- Title: %3 Pages: 1 -->
<svg width="805pt" height="1032pt"
 viewBox="0.00 0.00 805.19 1031.93" xmlns="http://www.w3.org/2000/svg" xmlns:xlink="http://www.w3.org/1999/xlink">
<g id="graph0" class="graph" transform="scale(1 1) rotate(0) translate(4 1027.93)">
<title>%3</title>
<polygon fill="white" stroke="none" points="-4,4 -4,-1027.93 801.187,-1027.93 801.187,4 -4,4"/>
<!-- __sfvwrite -->
<g id="node1" class="node"><title>__sfvwrite</title>
<polygon fill="#0d337e" stroke="#0d337e" points="424.314,-917.69 333.15,-917.69 333.15,-851.696 424.314,-851.696 424.314,-917.69"/>
<text text-anchor="middle" x="378.732" y="-905.44" font-family="Arial" font-size="10.00" fill="#ffffff">libsystem_c.dylib</text>
<text text-anchor="middle" x="378.732" y="-893.941" font-family="Arial" font-size="10.00" fill="#ffffff">__sfvwrite</text>
<text text-anchor="middle" x="378.732" y="-882.442" font-family="Arial" font-size="10.00" fill="#ffffff">8.52%</text>
<text text-anchor="middle" x="378.732" y="-870.943" font-family="Arial" font-size="10.00" fill="#ffffff">(4.60%)</text>
<text text-anchor="middle" x="378.732" y="-859.444" font-family="Arial" font-size="10.00" fill="#ffffff">3804639287×</text>
</g>
<!-- __vsnprintf_chk&#39;2 -->
<g id="node2" class="node"><title>__vsnprintf_chk&#39;2</title>
<polygon fill="#0d1e78" stroke="#0d1e78" points="656.243,-811.197 563.221,-811.197 563.221,-745.203 656.243,-745.203 656.243,-811.197"/>
<text text-anchor="middle" x="609.732" y="-798.947" font-family="Arial" font-size="10.00" fill="#ffffff">libsystem_c.dylib</text>
<text text-anchor="middle" x="609.732" y="-787.448" font-family="Arial" font-size="10.00" fill="#ffffff">__vsnprintf_chk&#39;2</text>
<text text-anchor="middle" x="609.732" y="-775.949" font-family="Arial" font-size="10.00" fill="#ffffff">3.97%</text>
<text text-anchor="middle" x="609.732" y="-764.45" font-family="Arial" font-size="10.00" fill="#ffffff">(0.14%)</text>
<text text-anchor="middle" x="609.732" y="-752.951" font-family="Arial" font-size="10.00" fill="#ffffff">8755109604×</text>
</g>
<!-- __sfvwrite&#45;&gt;__vsnprintf_chk&#39;2 -->
<g id="edge1" class="edge"><title>__sfvwrite&#45;&gt;__vsnprintf_chk&#39;2</title>
<path fill="none" stroke="#0d1d78" stroke-width="0.5" d="M424.37,-863.048C463.376,-845.404 519.411,-820.056 559.646,-801.856"/>
<polygon fill="#0d1d78" stroke="#0d1d78" stroke-width="0.5" points="560.317,-802.897 563.001,-800.339 559.307,-800.665 560.317,-802.897"/>
<text text-anchor="middle" x="552.459" y="-834.945" font-family="Arial" font-size="10.00" fill="#0d1d78">3.91%</text>
<text text-anchor="middle" x="552.459" y="-823.446" font-family="Arial" font-size="10.00" fill="#0d1d78">3807252210×</text>
</g>
<!-- _platform_memmove$VARIANT$Unknown -->
<g id="node8" class="node"><title>_platform_memmove$VARIANT$Unknown</title>
<polygon fill="#0d1375" stroke="#0d1375" points="554.563,-704.704 348.901,-704.704 348.901,-638.71 554.563,-638.71 554.563,-704.704"/>
<text text-anchor="middle" x="451.732" y="-692.454" font-family="Arial" font-size="10.00" fill="#ffffff">libsystem_platform.dylib</text>
<text text-anchor="middle" x="451.732" y="-680.955" font-family="Arial" font-size="10.00" fill="#ffffff">_platform_memmove$VARIANT$Unknown</text>
<text text-anchor="middle" x="451.732" y="-669.456" font-family="Arial" font-size="10.00" fill="#ffffff">1.52%</text>
<text text-anchor="middle" x="451.732" y="-657.957" font-family="Arial" font-size="10.00" fill="#ffffff">(1.52%)</text>
<text text-anchor="middle" x="451.732" y="-646.458" font-family="Arial" font-size="10.00" fill="#ffffff">4190048434×</text>
</g>
<!-- __vsnprintf_chk&#39;2&#45;&gt;_platform_memmove$VARIANT$Unknown -->
<g id="edge7" class="edge"><title>__vsnprintf_chk&#39;2&#45;&gt;_platform_memmove$VARIANT$Unknown</title>
<path fill="none" stroke="#0d1375" stroke-width="0.5" d="M563.216,-747.499C557.498,-743.798 551.745,-740.051 546.277,-736.452 531.825,-726.942 516.222,-716.496 501.939,-706.862"/>
<polygon fill="#0d1375" stroke="#0d1375" stroke-width="0.5" points="502.308,-705.633 498.722,-704.691 500.938,-707.664 502.308,-705.633"/>
<text text-anchor="middle" x="577.459" y="-728.452" font-family="Arial" font-size="10.00" fill="#0d1375">1.52%</text>
<text text-anchor="middle" x="577.459" y="-716.953" font-family="Arial" font-size="10.00" fill="#0d1375">4190048243×</text>
</g>
<!-- dyld_stub_binder -->
<g id="node9" class="node"><title>dyld_stub_binder</title>
<polygon fill="#0d1676" stroke="#0d1676" points="655.899,-704.704 563.565,-704.704 563.565,-638.71 655.899,-638.71 655.899,-704.704"/>
<text text-anchor="middle" x="609.732" y="-692.454" font-family="Arial" font-size="10.00" fill="#ffffff">libdyld.dylib</text>
<text text-anchor="middle" x="609.732" y="-680.955" font-family="Arial" font-size="10.00" fill="#ffffff">dyld_stub_binder</text>
<text text-anchor="middle" x="609.732" y="-669.456" font-family="Arial" font-size="10.00" fill="#ffffff">2.30%</text>
<text text-anchor="middle" x="609.732" y="-657.957" font-family="Arial" font-size="10.00" fill="#ffffff">(0.00%)</text>
<text text-anchor="middle" x="609.732" y="-646.458" font-family="Arial" font-size="10.00" fill="#ffffff">40×</text>
</g>
<!-- __vsnprintf_chk&#39;2&#45;&gt;dyld_stub_binder -->
<g id="edge8" class="edge"><title>__vsnprintf_chk&#39;2&#45;&gt;dyld_stub_binder</title>
<path fill="none" stroke="#0d1676" stroke-width="0.5" d="M609.732,-745.281C609.732,-733.641 609.732,-720.406 609.732,-708.455"/>
<polygon fill="#0d1676" stroke="#0d1676" stroke-width="0.5" points="610.957,-708.29 609.732,-704.79 608.507,-708.29 610.957,-708.29"/>
<text text-anchor="middle" x="623.909" y="-728.452" font-family="Arial" font-size="10.00" fill="#0d1676">2.29%</text>
<text text-anchor="middle" x="623.909" y="-716.953" font-family="Arial" font-size="10.00" fill="#0d1676">1×</text>
</g>
<!-- __sprintf_chk -->
<g id="node3" class="node"><title>__sprintf_chk</title>
<polygon fill="#0c678a" stroke="#0c678a" points="243.314,-598.21 152.15,-598.21 152.15,-532.216 243.314,-532.216 243.314,-598.21"/>
<text text-anchor="middle" x="197.732" y="-585.961" font-family="Arial" font-size="10.00" fill="#ffffff">libsystem_c.dylib</text>
<text text-anchor="middle" x="197.732" y="-574.462" font-family="Arial" font-size="10.00" fill="#ffffff">__sprintf_chk</text>
<text text-anchor="middle" x="197.732" y="-562.963" font-family="Arial" font-size="10.00" fill="#ffffff">18.07%</text>
<text text-anchor="middle" x="197.732" y="-551.464" font-family="Arial" font-size="10.00" fill="#ffffff">(0.25%)</text>
<text text-anchor="middle" x="197.732" y="-539.965" font-family="Arial" font-size="10.00" fill="#ffffff">380204032×</text>
</g>
<!-- __vsnprintf_chk -->
<g id="node4" class="node"><title>__vsnprintf_chk</title>
<polygon fill="#0c748d" stroke="#0c748d" points="341.314,-491.717 250.15,-491.717 250.15,-425.723 341.314,-425.723 341.314,-491.717"/>
<text text-anchor="middle" x="295.732" y="-479.468" font-family="Arial" font-size="10.00" fill="#ffffff">libsystem_c.dylib</text>
<text text-anchor="middle" x="295.732" y="-467.969" font-family="Arial" font-size="10.00" fill="#ffffff">__vsnprintf_chk</text>
<text text-anchor="middle" x="295.732" y="-456.47" font-family="Arial" font-size="10.00" fill="#ffffff">20.15%</text>
<text text-anchor="middle" x="295.732" y="-444.971" font-family="Arial" font-size="10.00" fill="#ffffff">(0.01%)</text>
<text text-anchor="middle" x="295.732" y="-433.472" font-family="Arial" font-size="10.00" fill="#ffffff">773402962×</text>
</g>
<!-- __sprintf_chk&#45;&gt;__vsnprintf_chk -->
<g id="edge2" class="edge"><title>__sprintf_chk&#45;&gt;__vsnprintf_chk</title>
<path fill="none" stroke="#0c668a" stroke-width="0.71" d="M211.362,-532.351C216.989,-521.465 224.229,-509.715 232.838,-500.468 236.944,-496.058 241.622,-491.91 246.532,-488.073"/>
<polygon fill="#0c668a" stroke="#0c668a" stroke-width="0.71" points="247.508,-489.178 249.964,-485.467 245.73,-486.837 247.508,-489.178"/>
<text text-anchor="middle" x="261.679" y="-515.466" font-family="Arial" font-size="10.00" fill="#0c668a">17.82%</text>
<text text-anchor="middle" x="261.679" y="-503.967" font-family="Arial" font-size="10.00" fill="#0c668a">380204032×</text>
</g>
<!-- __vsnprintf_chk&#45;&gt;__sfvwrite -->
<g id="edge5" class="edge"><title>__vsnprintf_chk&#45;&gt;__sfvwrite</title>
<path fill="none" stroke="#0d337e" stroke-width="0.5" d="M295.732,-491.733C295.732,-512.414 295.732,-539.904 295.732,-564.213 295.732,-779.2 295.732,-779.2 295.732,-779.2 295.732,-806.581 313.422,-830.952 332.469,-849.255"/>
<polygon fill="#0d337e" stroke="#0d337e" stroke-width="0.5" points="331.9,-850.402 335.287,-851.912 333.58,-848.62 331.9,-850.402"/>
<text text-anchor="middle" x="318.117" y="-675.206" font-family="Arial" font-size="10.00" fill="#0d337e">8.49%</text>
<text text-anchor="middle" x="318.117" y="-663.707" font-family="Arial" font-size="10.00" fill="#0d337e">2598960×</text>
</g>
<!-- vsnprintf -->
<g id="node7" class="node"><title>vsnprintf</title>
<polygon fill="#0d4282" stroke="#0d4282" points="341.314,-385.224 250.15,-385.224 250.15,-319.23 341.314,-319.23 341.314,-385.224"/>
<text text-anchor="middle" x="295.732" y="-372.975" font-family="Arial" font-size="10.00" fill="#ffffff">libsystem_c.dylib</text>
<text text-anchor="middle" x="295.732" y="-361.476" font-family="Arial" font-size="10.00" fill="#ffffff">vsnprintf</text>
<text text-anchor="middle" x="295.732" y="-349.977" font-family="Arial" font-size="10.00" fill="#ffffff">11.44%</text>
<text text-anchor="middle" x="295.732" y="-338.478" font-family="Arial" font-size="10.00" fill="#ffffff">(0.18%)</text>
<text text-anchor="middle" x="295.732" y="-326.979" font-family="Arial" font-size="10.00" fill="#ffffff">380204033×</text>
</g>
<!-- __vsnprintf_chk&#45;&gt;vsnprintf -->
<g id="edge6" class="edge"><title>__vsnprintf_chk&#45;&gt;vsnprintf</title>
<path fill="none" stroke="#0d4281" stroke-width="0.5" d="M295.732,-425.801C295.732,-414.161 295.732,-400.927 295.732,-388.975"/>
<polygon fill="#0d4281" stroke="#0d4281" stroke-width="0.5" points="296.957,-388.811 295.732,-385.311 294.507,-388.811 296.957,-388.811"/>
<text text-anchor="middle" x="323.679" y="-408.973" font-family="Arial" font-size="10.00" fill="#0d4281">11.39%</text>
<text text-anchor="middle" x="323.679" y="-397.474" font-family="Arial" font-size="10.00" fill="#0d4281">380204032×</text>
</g>
<!-- __v2printf -->
<g id="node5" class="node"><title>__v2printf</title>
<polygon fill="#0d3e80" stroke="#0d3e80" points="715.314,-172.238 624.15,-172.238 624.15,-106.244 715.314,-106.244 715.314,-172.238"/>
<text text-anchor="middle" x="669.732" y="-159.988" font-family="Arial" font-size="10.00" fill="#ffffff">libsystem_c.dylib</text>
<text text-anchor="middle" x="669.732" y="-148.489" font-family="Arial" font-size="10.00" fill="#ffffff">__v2printf</text>
<text text-anchor="middle" x="669.732" y="-136.99" font-family="Arial" font-size="10.00" fill="#ffffff">10.57%</text>
<text text-anchor="middle" x="669.732" y="-125.491" font-family="Arial" font-size="10.00" fill="#ffffff">(0.34%)</text>
<text text-anchor="middle" x="669.732" y="-113.992" font-family="Arial" font-size="10.00" fill="#ffffff">380204036×</text>
</g>
<!-- __vfprintf -->
<g id="node6" class="node"><title>__vfprintf</title>
<polygon fill="#0d3c80" stroke="#0d3c80" points="748.314,-65.7446 657.15,-65.7446 657.15,0.249444 748.314,0.249444 748.314,-65.7446"/>
<text text-anchor="middle" x="702.732" y="-53.4951" font-family="Arial" font-size="10.00" fill="#ffffff">libsystem_c.dylib</text>
<text text-anchor="middle" x="702.732" y="-41.9961" font-family="Arial" font-size="10.00" fill="#ffffff">__vfprintf</text>
<text text-anchor="middle" x="702.732" y="-30.4971" font-family="Arial" font-size="10.00" fill="#ffffff">10.22%</text>
<text text-anchor="middle" x="702.732" y="-18.998" font-family="Arial" font-size="10.00" fill="#ffffff">(10.22%)</text>
<text text-anchor="middle" x="702.732" y="-7.49902" font-family="Arial" font-size="10.00" fill="#ffffff">380204036×</text>
</g>
<!-- __v2printf&#45;&gt;__vfprintf -->
<g id="edge3" class="edge"><title>__v2printf&#45;&gt;__vfprintf</title>
<path fill="none" stroke="#0d3c80" stroke-width="0.5" d="M667.689,-106.413C667.957,-95.9907 669.283,-84.5202 672.838,-74.4951 673.498,-72.6346 674.273,-70.7863 675.137,-68.9625"/>
<polygon fill="#0d3c80" stroke="#0d3c80" stroke-width="0.5" points="676.297,-69.3848 676.785,-65.7088 674.111,-68.2781 676.297,-69.3848"/>
<text text-anchor="middle" x="701.679" y="-89.4932" font-family="Arial" font-size="10.00" fill="#0d3c80">10.22%</text>
<text text-anchor="middle" x="701.679" y="-77.9941" font-family="Arial" font-size="10.00" fill="#0d3c80">380204036×</text>
</g>
<!-- __vfprintf&#45;&gt;__vsnprintf_chk&#39;2 -->
<g id="edge4" class="edge"><title>__vfprintf&#45;&gt;__vsnprintf_chk&#39;2</title>
<path fill="none" stroke="#0d1e78" stroke-width="0.5" d="M723.063,-65.6612C724.45,-68.5814 725.702,-71.55 726.732,-74.4951 736.173,-101.505 735.732,-109.628 735.732,-138.241 735.732,-672.707 735.732,-672.707 735.732,-672.707 735.732,-714.14 694.863,-742.272 659.677,-758.814"/>
<polygon fill="#0d1e78" stroke="#0d1e78" stroke-width="0.5" points="658.955,-757.798 656.292,-760.379 659.983,-760.022 658.955,-757.798"/>
<text text-anchor="middle" x="766.459" y="-403.223" font-family="Arial" font-size="10.00" fill="#0d1e78">4182244363×</text>
</g>
<!-- _vsnprintf -->
<g id="node15" class="node"><title>_vsnprintf</title>
<polygon fill="#0d4181" stroke="#0d4181" points="715.314,-278.731 624.15,-278.731 624.15,-212.737 715.314,-212.737 715.314,-278.731"/>
<text text-anchor="middle" x="669.732" y="-266.481" font-family="Arial" font-size="10.00" fill="#ffffff">libsystem_c.dylib</text>
<text text-anchor="middle" x="669.732" y="-254.982" font-family="Arial" font-size="10.00" fill="#ffffff">_vsnprintf</text>
<text text-anchor="middle" x="669.732" y="-243.483" font-family="Arial" font-size="10.00" fill="#ffffff">11.21%</text>
<text text-anchor="middle" x="669.732" y="-231.984" font-family="Arial" font-size="10.00" fill="#ffffff">(0.64%)</text>
<text text-anchor="middle" x="669.732" y="-220.485" font-family="Arial" font-size="10.00" fill="#ffffff">380204033×</text>
</g>
<!-- vsnprintf&#45;&gt;_vsnprintf -->
<g id="edge26" class="edge"><title>vsnprintf&#45;&gt;_vsnprintf</title>
<path fill="none" stroke="#0d4181" stroke-width="0.5" d="M341.507,-321.775C343.25,-320.961 344.995,-320.192 346.732,-319.479 439.418,-281.471 555.603,-261.499 620.336,-252.621"/>
<polygon fill="#0d4181" stroke="#0d4181" stroke-width="0.5" points="620.84,-253.789 624.143,-252.103 620.51,-251.361 620.84,-253.789"/>
<text text-anchor="middle" x="469.679" y="-302.479" font-family="Arial" font-size="10.00" fill="#0d4181">11.21%</text>
<text text-anchor="middle" x="469.679" y="-290.98" font-family="Arial" font-size="10.00" fill="#0d4181">380204033×</text>
</g>
<!-- qsort -->
<g id="node17" class="node"><title>qsort</title>
<polygon fill="#0d2279" stroke="#0d2279" points="418.314,-598.21 327.15,-598.21 327.15,-532.216 418.314,-532.216 418.314,-598.21"/>
<text text-anchor="middle" x="372.732" y="-585.961" font-family="Arial" font-size="10.00" fill="#ffffff">libsystem_c.dylib</text>
<text text-anchor="middle" x="372.732" y="-574.462" font-family="Arial" font-size="10.00" fill="#ffffff">qsort</text>
<text text-anchor="middle" x="372.732" y="-562.963" font-family="Arial" font-size="10.00" fill="#ffffff">4.90%</text>
<text text-anchor="middle" x="372.732" y="-551.464" font-family="Arial" font-size="10.00" fill="#ffffff">(0.14%)</text>
<text text-anchor="middle" x="372.732" y="-539.965" font-family="Arial" font-size="10.00" fill="#ffffff">380204043×</text>
</g>
<!-- dyld_stub_binder&#45;&gt;qsort -->
<g id="edge18" class="edge"><title>dyld_stub_binder&#45;&gt;qsort</title>
<path fill="none" stroke="#0d1676" stroke-width="0.5" d="M563.521,-641.439C561.916,-640.583 560.317,-639.754 558.732,-638.959 513.842,-616.449 460.214,-596.126 422.101,-582.719"/>
<polygon fill="#0d1676" stroke="#0d1676" stroke-width="0.5" points="422.17,-581.446 418.462,-581.444 421.36,-583.758 422.17,-581.446"/>
<text text-anchor="middle" x="553.909" y="-621.959" font-family="Arial" font-size="10.00" fill="#0d1676">2.27%</text>
<text text-anchor="middle" x="553.909" y="-610.46" font-family="Arial" font-size="10.00" fill="#0d1676">1×</text>
</g>
<!-- _dyld_start -->
<g id="node10" class="node"><title>_dyld_start</title>
<polygon fill="#ff0000" stroke="#ff0000" points="137.148,-1024.18 72.3158,-1024.18 72.3158,-958.189 137.148,-958.189 137.148,-1024.18"/>
<text text-anchor="middle" x="104.732" y="-1011.93" font-family="Arial" font-size="10.00" fill="#ffffff">dyld</text>
<text text-anchor="middle" x="104.732" y="-1000.43" font-family="Arial" font-size="10.00" fill="#ffffff">_dyld_start</text>
<text text-anchor="middle" x="104.732" y="-988.936" font-family="Arial" font-size="10.00" fill="#ffffff">100.00%</text>
<text text-anchor="middle" x="104.732" y="-977.437" font-family="Arial" font-size="10.00" fill="#ffffff">(0.00%)</text>
<text text-anchor="middle" x="104.732" y="-965.938" font-family="Arial" font-size="10.00" fill="#ffffff">0×</text>
</g>
<!-- main -->
<g id="node11" class="node"><title>main</title>
<polygon fill="#ff0000" stroke="#ff0000" points="140.266,-917.69 69.1976,-917.69 69.1976,-851.696 140.266,-851.696 140.266,-917.69"/>
<text text-anchor="middle" x="104.732" y="-905.44" font-family="Arial" font-size="10.00" fill="#ffffff">a.forvalg.out</text>
<text text-anchor="middle" x="104.732" y="-893.941" font-family="Arial" font-size="10.00" fill="#ffffff">main</text>
<text text-anchor="middle" x="104.732" y="-882.442" font-family="Arial" font-size="10.00" fill="#ffffff">100.00%</text>
<text text-anchor="middle" x="104.732" y="-870.943" font-family="Arial" font-size="10.00" fill="#ffffff">(0.27%)</text>
<text text-anchor="middle" x="104.732" y="-859.444" font-family="Arial" font-size="10.00" fill="#ffffff">1×</text>
</g>
<!-- _dyld_start&#45;&gt;main -->
<g id="edge9" class="edge"><title>_dyld_start&#45;&gt;main</title>
<path fill="none" stroke="#ff0000" stroke-width="4" d="M104.732,-958.267C104.732,-948.734 104.732,-938.132 104.732,-928.041"/>
<polygon fill="#ff0000" stroke="#ff0000" stroke-width="4" points="108.232,-927.777 104.732,-917.777 101.232,-927.777 108.232,-927.777"/>
<text text-anchor="middle" x="124.471" y="-941.438" font-family="Arial" font-size="10.00" fill="#ff0000">100.00%</text>
<text text-anchor="middle" x="124.471" y="-929.939" font-family="Arial" font-size="10.00" fill="#ff0000">1×</text>
</g>
<!-- destroy_hash_table -->
<g id="node16" class="node"><title>destroy_hash_table</title>
<polygon fill="#a6d207" stroke="#a6d207" points="123.517,-704.704 19.9463,-704.704 19.9463,-638.71 123.517,-638.71 123.517,-704.704"/>
<text text-anchor="middle" x="71.7318" y="-692.454" font-family="Arial" font-size="10.00" fill="#ffffff">a.forvalg.out</text>
<text text-anchor="middle" x="71.7318" y="-680.955" font-family="Arial" font-size="10.00" fill="#ffffff">destroy_hash_table</text>
<text text-anchor="middle" x="71.7318" y="-669.456" font-family="Arial" font-size="10.00" fill="#ffffff">69.67%</text>
<text text-anchor="middle" x="71.7318" y="-657.957" font-family="Arial" font-size="10.00" fill="#ffffff">(2.62%)</text>
<text text-anchor="middle" x="71.7318" y="-646.458" font-family="Arial" font-size="10.00" fill="#ffffff">162620351445×</text>
</g>
<!-- main&#45;&gt;destroy_hash_table -->
<g id="edge21" class="edge"><title>main&#45;&gt;destroy_hash_table</title>
<path fill="none" stroke="#0c788e" stroke-width="0.83" d="M69.1233,-867.235C47.3661,-855.062 21.385,-836.214 8.83827,-810.947 -4.10818,-784.876 -1.31917,-772.731 8.83827,-745.452 13.9153,-731.817 22.8242,-719.035 32.3678,-708.105"/>
<polygon fill="#0c788e" stroke="#0c788e" stroke-width="0.83" points="33.7534,-708.972 35.624,-704.471 31.3552,-706.823 33.7534,-708.972"/>
<text text-anchor="middle" x="37.6786" y="-781.699" font-family="Arial" font-size="10.00" fill="#0c788e">20.79%</text>
<text text-anchor="middle" x="37.6786" y="-770.2" font-family="Arial" font-size="10.00" fill="#0c788e">770803907×</text>
</g>
<!-- doubles -->
<g id="node18" class="node"><title>doubles</title>
<polygon fill="#0d1074" stroke="#0d1074" points="140.625,-811.197 68.8382,-811.197 68.8382,-745.203 140.625,-745.203 140.625,-811.197"/>
<text text-anchor="middle" x="104.732" y="-798.947" font-family="Arial" font-size="10.00" fill="#ffffff">a.forvalg.out</text>
<text text-anchor="middle" x="104.732" y="-787.448" font-family="Arial" font-size="10.00" fill="#ffffff">doubles</text>
<text text-anchor="middle" x="104.732" y="-775.949" font-family="Arial" font-size="10.00" fill="#ffffff">0.78%</text>
<text text-anchor="middle" x="104.732" y="-764.45" font-family="Arial" font-size="10.00" fill="#ffffff">(0.41%)</text>
<text text-anchor="middle" x="104.732" y="-752.951" font-family="Arial" font-size="10.00" fill="#ffffff">380204032×</text>
</g>
<!-- main&#45;&gt;doubles -->
<g id="edge22" class="edge"><title>main&#45;&gt;doubles</title>
<path fill="none" stroke="#0d1074" stroke-width="0.5" d="M104.732,-851.774C104.732,-840.134 104.732,-826.899 104.732,-814.948"/>
<polygon fill="#0d1074" stroke="#0d1074" stroke-width="0.5" points="105.957,-814.783 104.732,-811.283 103.507,-814.784 105.957,-814.783"/>
<text text-anchor="middle" x="132.679" y="-834.945" font-family="Arial" font-size="10.00" fill="#0d1074">0.78%</text>
<text text-anchor="middle" x="132.679" y="-823.446" font-family="Arial" font-size="10.00" fill="#0d1074">380204032×</text>
</g>
<!-- in_hash_table_p -->
<g id="node20" class="node"><title>in_hash_table_p</title>
<polygon fill="#dec305" stroke="#dec305" points="239.631,-811.197 149.832,-811.197 149.832,-745.203 239.631,-745.203 239.631,-811.197"/>
<text text-anchor="middle" x="194.732" y="-798.947" font-family="Arial" font-size="10.00" fill="#ffffff">a.forvalg.out</text>
<text text-anchor="middle" x="194.732" y="-787.448" font-family="Arial" font-size="10.00" fill="#ffffff">in_hash_table_p</text>
<text text-anchor="middle" x="194.732" y="-775.949" font-family="Arial" font-size="10.00" fill="#ffffff">78.11%</text>
<text text-anchor="middle" x="194.732" y="-764.45" font-family="Arial" font-size="10.00" fill="#ffffff">(25.95%)</text>
<text text-anchor="middle" x="194.732" y="-752.951" font-family="Arial" font-size="10.00" fill="#ffffff">311875200×</text>
</g>
<!-- main&#45;&gt;in_hash_table_p -->
<g id="edge23" class="edge"><title>main&#45;&gt;in_hash_table_p</title>
<path fill="none" stroke="#dec305" stroke-width="3.12" d="M140.464,-862.748C148.427,-857.005 156.382,-850.306 162.732,-842.945 168.8,-835.911 174.06,-827.525 178.464,-819.183"/>
<polygon fill="#dec305" stroke="#dec305" stroke-width="3.12" points="181.252,-820.495 182.423,-811.245 175.739,-817.746 181.252,-820.495"/>
<text text-anchor="middle" x="206.308" y="-834.945" font-family="Arial" font-size="10.00" fill="#dec305">78.11%</text>
<text text-anchor="middle" x="206.308" y="-823.446" font-family="Arial" font-size="10.00" fill="#dec305">311875200×</text>
</g>
<!-- _platform_strcmp -->
<g id="node12" class="node"><title>_platform_strcmp</title>
<polygon fill="#0ab025" stroke="#0ab025" points="132.936,-598.21 10.5274,-598.21 10.5274,-532.216 132.936,-532.216 132.936,-598.21"/>
<text text-anchor="middle" x="71.7318" y="-585.961" font-family="Arial" font-size="10.00" fill="#ffffff">libsystem_platform.dylib</text>
<text text-anchor="middle" x="71.7318" y="-574.462" font-family="Arial" font-size="10.00" fill="#ffffff">_platform_strcmp</text>
<text text-anchor="middle" x="71.7318" y="-562.963" font-family="Arial" font-size="10.00" fill="#ffffff">45.90%</text>
<text text-anchor="middle" x="71.7318" y="-551.464" font-family="Arial" font-size="10.00" fill="#ffffff">(45.90%)</text>
<text text-anchor="middle" x="71.7318" y="-539.965" font-family="Arial" font-size="10.00" fill="#ffffff">160429063806×</text>
</g>
<!-- _qsort -->
<g id="node13" class="node"><title>_qsort</title>
<polygon fill="#0d1776" stroke="#0d1776" points="435.625,-491.717 363.838,-491.717 363.838,-425.723 435.625,-425.723 435.625,-491.717"/>
<text text-anchor="middle" x="399.732" y="-479.468" font-family="Arial" font-size="10.00" fill="#ffffff">dyld</text>
<text text-anchor="middle" x="399.732" y="-467.969" font-family="Arial" font-size="10.00" fill="#ffffff">_qsort</text>
<text text-anchor="middle" x="399.732" y="-456.47" font-family="Arial" font-size="10.00" fill="#ffffff">2.45%</text>
<text text-anchor="middle" x="399.732" y="-444.971" font-family="Arial" font-size="10.00" fill="#ffffff">(1.84%)</text>
<text text-anchor="middle" x="399.732" y="-433.472" font-family="Arial" font-size="10.00" fill="#ffffff">380204043×</text>
</g>
<!-- rank_first_compare -->
<g id="node14" class="node"><title>rank_first_compare</title>
<polygon fill="#0d0f74" stroke="#0d0f74" points="452.323,-385.224 351.14,-385.224 351.14,-319.23 452.323,-319.23 452.323,-385.224"/>
<text text-anchor="middle" x="401.732" y="-372.975" font-family="Arial" font-size="10.00" fill="#ffffff">a.forvalg.out</text>
<text text-anchor="middle" x="401.732" y="-361.476" font-family="Arial" font-size="10.00" fill="#ffffff">rank_first_compare</text>
<text text-anchor="middle" x="401.732" y="-349.977" font-family="Arial" font-size="10.00" fill="#ffffff">0.62%</text>
<text text-anchor="middle" x="401.732" y="-338.478" font-family="Arial" font-size="10.00" fill="#ffffff">(0.62%)</text>
<text text-anchor="middle" x="401.732" y="-326.979" font-family="Arial" font-size="10.00" fill="#ffffff">2924591553×</text>
</g>
<!-- _qsort&#45;&gt;rank_first_compare -->
<g id="edge10" class="edge"><title>_qsort&#45;&gt;rank_first_compare</title>
<path fill="none" stroke="#0d0f74" stroke-width="0.5" d="M400.343,-425.801C400.566,-414.161 400.819,-400.927 401.048,-388.975"/>
<polygon fill="#0d0f74" stroke="#0d0f74" stroke-width="0.5" points="402.275,-388.834 401.118,-385.311 399.826,-388.787 402.275,-388.834"/>
<text text-anchor="middle" x="432.088" y="-408.973" font-family="Arial" font-size="10.00" fill="#0d0f74">0.62%</text>
<text text-anchor="middle" x="432.088" y="-397.474" font-family="Arial" font-size="10.00" fill="#0d0f74">2911867478×</text>
</g>
<!-- _vsnprintf&#45;&gt;__vsnprintf_chk&#39;2 -->
<g id="edge12" class="edge"><title>_vsnprintf&#45;&gt;__vsnprintf_chk&#39;2</title>
<path fill="none" stroke="#0d1e78" stroke-width="0.5" d="M669.732,-278.747C669.732,-299.428 669.732,-326.918 669.732,-351.227 669.732,-672.707 669.732,-672.707 669.732,-672.707 669.732,-698.019 656.328,-722.747 642.19,-741.789"/>
<polygon fill="#0d1e78" stroke="#0d1e78" stroke-width="0.5" points="640.868,-741.506 639.732,-745.035 642.821,-742.985 640.868,-741.506"/>
<text text-anchor="middle" x="697.679" y="-509.716" font-family="Arial" font-size="10.00" fill="#0d1e78">380204033×</text>
</g>
<!-- _vsnprintf&#45;&gt;__v2printf -->
<g id="edge11" class="edge"><title>_vsnprintf&#45;&gt;__v2printf</title>
<path fill="none" stroke="#0d3e80" stroke-width="0.5" d="M669.732,-212.815C669.732,-201.175 669.732,-187.94 669.732,-175.989"/>
<polygon fill="#0d3e80" stroke="#0d3e80" stroke-width="0.5" points="670.957,-175.824 669.732,-172.325 668.507,-175.825 670.957,-175.824"/>
<text text-anchor="middle" x="697.679" y="-195.986" font-family="Arial" font-size="10.00" fill="#0d3e80">10.57%</text>
<text text-anchor="middle" x="697.679" y="-184.487" font-family="Arial" font-size="10.00" fill="#0d3e80">380204033×</text>
</g>
<!-- destroy_hash_table&#45;&gt;__sprintf_chk -->
<g id="edge13" class="edge"><title>destroy_hash_table&#45;&gt;__sprintf_chk</title>
<path fill="none" stroke="#0c678a" stroke-width="0.72" d="M123.394,-646.034C131.26,-641.232 138.99,-635.84 145.732,-629.959 155.332,-621.585 154.889,-616.915 162.838,-606.961 164.291,-605.141 165.793,-603.289 167.321,-601.427"/>
<polygon fill="#0c678a" stroke="#0c678a" stroke-width="0.72" points="168.552,-602.244 170.093,-598.07 166.285,-600.372 168.552,-602.244"/>
<text text-anchor="middle" x="191.679" y="-621.959" font-family="Arial" font-size="10.00" fill="#0c678a">18.03%</text>
<text text-anchor="middle" x="191.679" y="-610.46" font-family="Arial" font-size="10.00" fill="#0c678a">380204031×</text>
</g>
<!-- destroy_hash_table&#45;&gt;_platform_strcmp -->
<g id="edge14" class="edge"><title>destroy_hash_table&#45;&gt;_platform_strcmp</title>
<path fill="none" stroke="#0ab025" stroke-width="1.84" d="M71.7318,-638.787C71.7318,-628.251 71.7318,-616.409 71.7318,-605.394"/>
<polygon fill="#0ab025" stroke="#0ab025" stroke-width="1.84" points="74.1119,-605.097 71.7318,-598.297 69.3519,-605.097 74.1119,-605.097"/>
<text text-anchor="middle" x="108.021" y="-621.959" font-family="Arial" font-size="10.00" fill="#0ab025">45.90%</text>
<text text-anchor="middle" x="108.021" y="-610.46" font-family="Arial" font-size="10.00" fill="#0ab025">160429063349×</text>
</g>
<!-- destroy_hash_table&#45;&gt;destroy_hash_table -->
<g id="edge15" class="edge"><title>destroy_hash_table&#45;&gt;destroy_hash_table</title>
<path fill="none" stroke="#a6d207" stroke-width="2.79" d="M123.705,-679.721C128.996,-678.136 132.374,-675.464 132.374,-671.707 132.374,-670.297 131.899,-669.041 131.027,-667.937"/>
<polygon fill="#a6d207" stroke="#a6d207" stroke-width="2.79" points="132.342,-665.342 123.705,-663.692 129.428,-670.368 132.342,-665.342"/>
<text text-anchor="middle" x="154.76" y="-669.456" font-family="Arial" font-size="10.00" fill="#a6d207">2598963×</text>
</g>
<!-- destroy_hash_table&#45;&gt;qsort -->
<g id="edge16" class="edge"><title>destroy_hash_table&#45;&gt;qsort</title>
<path fill="none" stroke="#0d1876" stroke-width="0.5" d="M123.509,-657.692C151.371,-650.304 186.19,-640.452 216.732,-629.959 253.04,-617.485 293.113,-601.05 323.552,-587.993"/>
<polygon fill="#0d1876" stroke="#0d1876" stroke-width="0.5" points="324.109,-589.087 326.84,-586.58 323.141,-586.836 324.109,-589.087"/>
<text text-anchor="middle" x="305.679" y="-621.959" font-family="Arial" font-size="10.00" fill="#0d1876">2.63%</text>
<text text-anchor="middle" x="305.679" y="-610.46" font-family="Arial" font-size="10.00" fill="#0d1876">380204031×</text>
</g>
<!-- qsort&#45;&gt;__vsnprintf_chk -->
<g id="edge24" class="edge"><title>qsort&#45;&gt;__vsnprintf_chk</title>
<path fill="none" stroke="#0d1676" stroke-width="0.5" d="M334.444,-532.425C331.732,-529.523 329.158,-526.521 326.838,-523.466 320.282,-514.83 314.556,-504.594 309.865,-494.88"/>
<polygon fill="#0d1676" stroke="#0d1676" stroke-width="0.5" points="310.92,-494.247 308.314,-491.609 308.707,-495.296 310.92,-494.247"/>
<text text-anchor="middle" x="355.679" y="-515.466" font-family="Arial" font-size="10.00" fill="#0d1676">2.30%</text>
<text text-anchor="middle" x="355.679" y="-503.967" font-family="Arial" font-size="10.00" fill="#0d1676">380204032×</text>
</g>
<!-- qsort&#45;&gt;_qsort -->
<g id="edge25" class="edge"><title>qsort&#45;&gt;_qsort</title>
<path fill="none" stroke="#0d1776" stroke-width="0.5" d="M380.979,-532.294C383.987,-520.654 387.407,-507.42 390.495,-495.469"/>
<polygon fill="#0d1776" stroke="#0d1776" stroke-width="0.5" points="391.752,-495.499 391.442,-491.804 389.38,-494.886 391.752,-495.499"/>
<text text-anchor="middle" x="416.679" y="-515.466" font-family="Arial" font-size="10.00" fill="#0d1776">2.45%</text>
<text text-anchor="middle" x="416.679" y="-503.967" font-family="Arial" font-size="10.00" fill="#0d1776">380204043×</text>
</g>
<!-- doubles&#45;&gt;destroy_hash_table -->
<g id="edge17" class="edge"><title>doubles&#45;&gt;destroy_hash_table</title>
<path fill="none" stroke="#0d0e73" stroke-width="0.5" d="M75.2563,-745.028C73.6858,-742.253 72.3255,-739.382 71.2767,-736.452 68.1439,-727.699 67.116,-717.827 67.149,-708.513"/>
<polygon fill="#0d0e73" stroke="#0d0e73" stroke-width="0.5" points="68.3824,-708.083 67.225,-704.56 65.9328,-708.036 68.3824,-708.083"/>
<text text-anchor="middle" x="102.459" y="-728.452" font-family="Arial" font-size="10.00" fill="#0d0e73">0.37%</text>
<text text-anchor="middle" x="102.459" y="-716.953" font-family="Arial" font-size="10.00" fill="#0d0e73">1415286262×</text>
</g>
<!-- hash -->
<g id="node19" class="node"><title>hash</title>
<polygon fill="#0d1d77" stroke="#0d1d77" points="266.625,-704.704 194.838,-704.704 194.838,-638.71 266.625,-638.71 266.625,-704.704"/>
<text text-anchor="middle" x="230.732" y="-692.454" font-family="Arial" font-size="10.00" fill="#ffffff">a.forvalg.out</text>
<text text-anchor="middle" x="230.732" y="-680.955" font-family="Arial" font-size="10.00" fill="#ffffff">hash</text>
<text text-anchor="middle" x="230.732" y="-669.456" font-family="Arial" font-size="10.00" fill="#ffffff">3.70%</text>
<text text-anchor="middle" x="230.732" y="-657.957" font-family="Arial" font-size="10.00" fill="#ffffff">(3.70%)</text>
<text text-anchor="middle" x="230.732" y="-646.458" font-family="Arial" font-size="10.00" fill="#ffffff">314474160×</text>
</g>
<!-- in_hash_table_p&#45;&gt;destroy_hash_table -->
<g id="edge19" class="edge"><title>in_hash_table_p&#45;&gt;destroy_hash_table</title>
<path fill="none" stroke="#0ab414" stroke-width="1.94" d="M151.526,-745.366C148.554,-742.494 145.723,-739.51 143.154,-736.452 135.681,-727.557 138.486,-722.105 130.732,-713.454 129.532,-712.116 128.28,-710.799 126.986,-709.505"/>
<polygon fill="#0ab414" stroke="#0ab414" stroke-width="1.94" points="128.581,-707.642 121.802,-704.634 125.225,-711.213 128.581,-707.642"/>
<text text-anchor="middle" x="180.021" y="-728.452" font-family="Arial" font-size="10.00" fill="#0ab414">48.49%</text>
<text text-anchor="middle" x="180.021" y="-716.953" font-family="Arial" font-size="10.00" fill="#0ab414">160429063350×</text>
</g>
<!-- in_hash_table_p&#45;&gt;hash -->
<g id="edge20" class="edge"><title>in_hash_table_p&#45;&gt;hash</title>
<path fill="none" stroke="#0d1c77" stroke-width="0.5" d="M214.012,-745.17C215.385,-742.275 216.652,-739.344 217.732,-736.452 221.017,-727.657 223.54,-717.853 225.449,-708.622"/>
<polygon fill="#0d1c77" stroke="#0d1c77" stroke-width="0.5" points="226.746,-708.377 226.229,-704.705 224.344,-707.898 226.746,-708.377"/>
<text text-anchor="middle" x="252.308" y="-728.452" font-family="Arial" font-size="10.00" fill="#0d1c77">3.67%</text>
<text text-anchor="middle" x="252.308" y="-716.953" font-family="Arial" font-size="10.00" fill="#0d1c77">311875200×</text>
</g>
</g>
</svg>
